<svg width="209" height="40" viewBox="0 0 209 40" fill="none" xmlns="http://www.w3.org/2000/svg">
<g clip-path="url(#clip0_1_2)">
<path d="M35.213 11.501L35.206 6.288L25.586 0V4.022L31.931 8.2L31.936 11.402L28.988 13.398L26.977 11.931V9.446L23.7 7.204V11.727L18.505 14.915L18.495 23.335L14.822 25.403L12.937 23.926V21.488L15.169 19.959V19.939V16.166L11.152 18.854L8.081 16.856L5.276 18.693L9.659 21.694V23.536L6.5 25.674L3.277 23.492V16.23L8.062 12.991L8.066 9.875L14.203 13.827L19.361 10.394L16.216 8.559L14.159 9.947L9.677 6.983L14.731 4.036L19.11 6.603V2.775L14.736 0.211L4.794 6.008L4.787 11.223L0 14.465V25.257L4.787 28.499L4.794 33.714L14.414 40V35.981L8.069 31.803L8.064 28.601L11.012 26.605L13.023 28.072V30.557L16.3 32.798V28.275L21.569 25.088L21.628 16.667L25.178 14.599L27.063 16.076V18.514L24.831 20.043V20.063V23.837L28.848 21.148L31.919 23.146L34.724 21.309L30.34 18.306V16.466L33.5 14.329L36.723 16.511V23.772L31.939 27.012L31.934 30.127L25.797 26.173L20.639 29.584L23.784 31.416L25.841 30.055L30.323 33.019L25.269 35.966L20.89 33.399V37.225L25.264 39.789L35.206 33.995L35.213 28.779L40 25.537V14.743L35.213 11.501Z" fill="#AC6AFF"/>
<path d="M56.44 31.14C54.8 31.14 53.4533 30.7533 52.4 29.98C51.3467 29.1933 50.78 28.0733 50.7 26.62H54.88C54.92 27.1133 55.0667 27.4733 55.32 27.7C55.5733 27.9267 55.9 28.04 56.3 28.04C56.66 28.04 56.9533 27.9533 57.18 27.78C57.42 27.5933 57.54 27.34 57.54 27.02C57.54 26.6067 57.3467 26.2867 56.96 26.06C56.5733 25.8333 55.9467 25.58 55.08 25.3C54.16 24.9933 53.4133 24.7 52.84 24.42C52.28 24.1267 51.7867 23.7067 51.36 23.16C50.9467 22.6 50.74 21.8733 50.74 20.98C50.74 20.0733 50.9667 19.3 51.42 18.66C51.8733 18.0067 52.5 17.5133 53.3 17.18C54.1 16.8467 55.0067 16.68 56.02 16.68C57.66 16.68 58.9667 17.0667 59.94 17.84C60.9267 18.6 61.4533 19.6733 61.52 21.06H57.26C57.2467 20.6333 57.1133 20.3133 56.86 20.1C56.62 19.8867 56.3067 19.78 55.92 19.78C55.6267 19.78 55.3867 19.8667 55.2 20.04C55.0133 20.2133 54.92 20.46 54.92 20.78C54.92 21.0467 55.02 21.28 55.22 21.48C55.4333 21.6667 55.6933 21.8333 56 21.98C56.3067 22.1133 56.76 22.2867 57.36 22.5C58.2533 22.8067 58.9867 23.1133 59.56 23.42C60.1467 23.7133 60.6467 24.1333 61.06 24.68C61.4867 25.2133 61.7 25.8933 61.7 26.72C61.7 27.56 61.4867 28.3133 61.06 28.98C60.6467 29.6467 60.04 30.1733 59.24 30.56C58.4533 30.9467 57.52 31.14 56.44 31.14ZM70.9023 19.68C72.1823 19.68 73.1957 20.1133 73.9423 20.98C74.7023 21.8333 75.0823 22.9933 75.0823 24.46V31H71.1623V24.98C71.1623 24.34 70.9957 23.84 70.6623 23.48C70.329 23.1067 69.8823 22.92 69.3223 22.92C68.7357 22.92 68.2757 23.1067 67.9423 23.48C67.609 23.84 67.4423 24.34 67.4423 24.98V31H63.5223V16.2H67.4423V21.38C67.789 20.8733 68.2557 20.4667 68.8423 20.16C69.4423 19.84 70.129 19.68 70.9023 19.68ZM87.9533 25.26C87.9533 25.5667 87.9333 25.8733 87.8933 26.18H80.4733C80.5133 26.7933 80.6799 27.2533 80.9733 27.56C81.2799 27.8533 81.6666 28 82.1333 28C82.7866 28 83.2533 27.7067 83.5333 27.12H87.7133C87.5399 27.8933 87.1999 28.5867 86.6933 29.2C86.1999 29.8 85.5733 30.2733 84.8133 30.62C84.0533 30.9667 83.2133 31.14 82.2933 31.14C81.1866 31.14 80.1999 30.9067 79.3333 30.44C78.4799 29.9733 77.8066 29.3067 77.3133 28.44C76.8333 27.5733 76.5933 26.5533 76.5933 25.38C76.5933 24.2067 76.8333 23.1933 77.3133 22.34C77.7933 21.4733 78.4599 20.8067 79.3133 20.34C80.1799 19.8733 81.1733 19.64 82.2933 19.64C83.3999 19.64 84.3799 19.8667 85.2333 20.32C86.0866 20.7733 86.7533 21.4267 87.2333 22.28C87.7133 23.12 87.9533 24.1133 87.9533 25.26ZM83.9533 24.28C83.9533 23.8 83.7933 23.4267 83.4733 23.16C83.1533 22.88 82.7533 22.74 82.2733 22.74C81.7933 22.74 81.3999 22.8733 81.0933 23.14C80.7866 23.3933 80.5866 23.7733 80.4933 24.28H83.9533ZM91.5375 18.74C90.8442 18.74 90.2842 18.5533 89.8575 18.18C89.4442 17.7933 89.2375 17.3133 89.2375 16.74C89.2375 16.1533 89.4442 15.6667 89.8575 15.28C90.2842 14.8933 90.8442 14.7 91.5375 14.7C92.2175 14.7 92.7642 14.8933 93.1775 15.28C93.6042 15.6667 93.8175 16.1533 93.8175 16.74C93.8175 17.3133 93.6042 17.7933 93.1775 18.18C92.7642 18.5533 92.2175 18.74 91.5375 18.74ZM93.4775 19.78V31H89.5575V19.78H93.4775ZM99.6298 16.2V31H95.7098V16.2H99.6298ZM101.222 25.38C101.222 24.22 101.429 23.2067 101.842 22.34C102.269 21.4733 102.849 20.8067 103.582 20.34C104.316 19.8733 105.129 19.64 106.022 19.64C106.742 19.64 107.382 19.7933 107.942 20.1C108.516 20.3933 108.962 20.8 109.282 21.32V16.2H113.222V31H109.282V29.44C108.976 29.96 108.542 30.3733 107.982 30.68C107.422 30.9867 106.762 31.14 106.002 31.14C105.109 31.14 104.296 30.9067 103.562 30.44C102.842 29.9733 102.269 29.3067 101.842 28.44C101.429 27.56 101.222 26.54 101.222 25.38ZM109.302 25.38C109.302 24.66 109.102 24.0933 108.702 23.68C108.316 23.2667 107.836 23.06 107.262 23.06C106.676 23.06 106.189 23.2667 105.802 23.68C105.416 24.08 105.222 24.6467 105.222 25.38C105.222 26.1 105.416 26.6733 105.802 27.1C106.189 27.5133 106.676 27.72 107.262 27.72C107.836 27.72 108.316 27.5133 108.702 27.1C109.102 26.6867 109.302 26.1133 109.302 25.38ZM114.976 23.92C114.976 22.5333 115.263 21.3 115.836 20.22C116.423 19.1267 117.249 18.28 118.316 17.68C119.383 17.0667 120.609 16.76 121.996 16.76C123.756 16.76 125.236 17.2333 126.436 18.18C127.636 19.1133 128.409 20.3867 128.756 22H124.536C124.283 21.4667 123.929 21.06 123.476 20.78C123.036 20.5 122.523 20.36 121.936 20.36C121.029 20.36 120.303 20.6867 119.756 21.34C119.223 21.98 118.956 22.84 118.956 23.92C118.956 25.0133 119.223 25.8867 119.756 26.54C120.303 27.18 121.029 27.5 121.936 27.5C122.523 27.5 123.036 27.36 123.476 27.08C123.929 26.8 124.283 26.3933 124.536 25.86H128.756C128.409 27.4733 127.636 28.7533 126.436 29.7C125.236 30.6333 123.756 31.1 121.996 31.1C120.609 31.1 119.383 30.8 118.316 30.2C117.249 29.5867 116.423 28.74 115.836 27.66C115.263 26.5667 114.976 25.32 114.976 23.92ZM135.832 31.14C134.712 31.14 133.706 30.9067 132.812 30.44C131.932 29.9733 131.239 29.3067 130.732 28.44C130.226 27.5733 129.972 26.5533 129.972 25.38C129.972 24.22 130.226 23.2067 130.732 22.34C131.252 21.4733 131.952 20.8067 132.832 20.34C133.726 19.8733 134.732 19.64 135.852 19.64C136.972 19.64 137.972 19.8733 138.852 20.34C139.746 20.8067 140.446 21.4733 140.952 22.34C141.472 23.2067 141.732 24.22 141.732 25.38C141.732 26.54 141.472 27.56 140.952 28.44C140.446 29.3067 139.746 29.9733 138.852 30.44C137.959 30.9067 136.952 31.14 135.832 31.14ZM135.832 27.74C136.379 27.74 136.832 27.54 137.192 27.14C137.566 26.7267 137.752 26.14 137.752 25.38C137.752 24.62 137.566 24.04 137.192 23.64C136.832 23.24 136.386 23.04 135.852 23.04C135.319 23.04 134.872 23.24 134.512 23.64C134.152 24.04 133.972 24.62 133.972 25.38C133.972 26.1533 134.146 26.74 134.492 27.14C134.839 27.54 135.286 27.74 135.832 27.74ZM157.987 19.68C159.4 19.68 160.507 20.1067 161.307 20.96C162.12 21.8133 162.527 22.98 162.527 24.46V31H158.607V24.98C158.607 24.38 158.44 23.9133 158.107 23.58C157.774 23.2467 157.32 23.08 156.747 23.08C156.174 23.08 155.72 23.2467 155.387 23.58C155.054 23.9133 154.887 24.38 154.887 24.98V31H150.967V24.98C150.967 24.38 150.8 23.9133 150.467 23.58C150.147 23.2467 149.7 23.08 149.127 23.08C148.54 23.08 148.08 23.2467 147.747 23.58C147.414 23.9133 147.247 24.38 147.247 24.98V31H143.327V19.78H147.247V21.26C147.594 20.78 148.04 20.4 148.587 20.12C149.147 19.8267 149.787 19.68 150.507 19.68C151.334 19.68 152.067 19.86 152.707 20.22C153.36 20.58 153.874 21.0867 154.247 21.74C154.647 21.1267 155.174 20.6333 155.827 20.26C156.48 19.8733 157.2 19.68 157.987 19.68ZM179.335 19.68C180.748 19.68 181.855 20.1067 182.655 20.96C183.468 21.8133 183.875 22.98 183.875 24.46V31H179.955V24.98C179.955 24.38 179.788 23.9133 179.455 23.58C179.121 23.2467 178.668 23.08 178.095 23.08C177.521 23.08 177.068 23.2467 176.735 23.58C176.401 23.9133 176.235 24.38 176.235 24.98V31H172.315V24.98C172.315 24.38 172.148 23.9133 171.815 23.58C171.495 23.2467 171.048 23.08 170.475 23.08C169.888 23.08 169.428 23.2467 169.095 23.58C168.761 23.9133 168.595 24.38 168.595 24.98V31H164.675V19.78H168.595V21.26C168.941 20.78 169.388 20.4 169.935 20.12C170.495 19.8267 171.135 19.68 171.855 19.68C172.681 19.68 173.415 19.86 174.055 20.22C174.708 20.58 175.221 21.0867 175.595 21.74C175.995 21.1267 176.521 20.6333 177.175 20.26C177.828 19.8733 178.548 19.68 179.335 19.68ZM190.802 31.14C189.789 31.14 188.882 30.9733 188.082 30.64C187.296 30.2933 186.669 29.8267 186.202 29.24C185.749 28.64 185.496 27.9667 185.442 27.22H189.242C189.296 27.58 189.462 27.86 189.742 28.06C190.022 28.26 190.369 28.36 190.782 28.36C191.102 28.36 191.356 28.2933 191.542 28.16C191.729 28.0267 191.822 27.8533 191.822 27.64C191.822 27.36 191.669 27.1533 191.362 27.02C191.056 26.8867 190.549 26.74 189.842 26.58C189.042 26.42 188.376 26.24 187.842 26.04C187.309 25.84 186.842 25.5133 186.442 25.06C186.056 24.6067 185.862 23.9933 185.862 23.22C185.862 22.5533 186.042 21.9533 186.402 21.42C186.762 20.8733 187.289 20.44 187.982 20.12C188.689 19.8 189.536 19.64 190.522 19.64C191.989 19.64 193.142 20 193.982 20.72C194.822 21.44 195.309 22.3867 195.442 23.56H191.902C191.836 23.2 191.676 22.9267 191.422 22.74C191.182 22.54 190.856 22.44 190.442 22.44C190.122 22.44 189.876 22.5 189.702 22.62C189.542 22.74 189.462 22.9067 189.462 23.12C189.462 23.3867 189.616 23.5933 189.922 23.74C190.229 23.8733 190.722 24.0133 191.402 24.16C192.216 24.3333 192.889 24.5267 193.422 24.74C193.969 24.9533 194.442 25.3 194.842 25.78C195.256 26.2467 195.462 26.8867 195.462 27.7C195.462 28.3533 195.269 28.94 194.882 29.46C194.509 29.98 193.969 30.3933 193.262 30.7C192.569 30.9933 191.749 31.14 190.802 31.14Z" fill="white"/>
</g>
<defs>
<clipPath id="clip0_1_2">
<rect width="209" height="40" fill="white"/>
</clipPath>
</defs>
</svg>
